<svg viewBox="0 0 494 93" fill="none" xmlns="http://www.w3.org/2000/svg">
<path d="M90.864 86.136C90.864 89.8053 88.7733 91.64 84.592 91.64C80.3253 91.64 78.192 89.8053 78.192 86.136V41.208C78.192 35.6613 72.6027 32.888 61.424 32.888H30.192C18.7573 32.888 13.04 35.6613 13.04 41.208V86.136C13.04 89.8053 10.992 91.64 6.896 91.64C2.71467 91.64 0.624001 89.8053 0.624001 86.136V41.208C0.624001 28.8347 11.632 22.648 33.648 22.648H57.712C79.8133 22.648 90.864 28.8347 90.864 41.208V86.136ZM128.415 52.216H195.231V42.104C195.231 35.96 190.452 32.888 180.895 32.888H147.487C134.772 32.888 128.415 36.1307 128.415 42.616V52.216ZM207.263 57.208C207.263 61.048 205.428 62.968 201.759 62.968H128.415V71.416C128.415 77.56 134.772 80.632 147.487 80.632H161.183C164.682 80.632 166.431 82.3387 166.431 85.752C166.431 89.2507 164.682 91 161.183 91H150.687C127.562 91 115.999 83.96 115.999 69.88V43.64C115.999 29.6453 127.434 22.648 150.303 22.648H178.463C197.663 22.648 207.263 28.7067 207.263 40.824V57.208ZM248.133 32.888V86.136C248.133 89.8053 246.128 91.64 242.117 91.64C237.936 91.64 235.845 89.8053 235.845 86.136V32.888H229.701C226.288 32.888 224.581 31.1387 224.581 27.64C224.581 24.312 226.288 22.648 229.701 22.648H235.845V6.392C235.845 2.72266 237.978 0.887993 242.245 0.887993C246.17 0.887993 248.133 2.72266 248.133 6.392V22.648H273.093C276.506 22.648 278.213 24.3547 278.213 27.768C278.213 31.1813 276.506 32.888 273.093 32.888H248.133ZM383.659 71.16C383.659 84.3867 372.054 91 348.843 91H327.339C303.958 91 292.267 84.3867 292.267 71.16V26.872C292.267 23.288 294.315 21.496 298.411 21.496C302.507 21.496 304.555 23.288 304.555 26.872V71.16C304.555 77.4747 311.467 80.632 325.291 80.632H350.891C364.374 80.632 371.115 77.56 371.115 71.416V26.872C371.115 23.3733 373.248 21.624 377.515 21.624C381.611 21.624 383.659 23.3733 383.659 26.872V71.16ZM449.316 49.656L483.62 23.544C484.815 22.4347 486.137 21.88 487.588 21.88C489.295 21.88 490.703 22.5627 491.812 23.928C493.007 25.208 493.604 26.616 493.604 28.152C493.604 29.688 492.793 31.096 491.172 32.376L458.916 56.824L491.172 81.656C492.452 82.68 493.092 83.9173 493.092 85.368C493.092 86.2213 492.921 87.032 492.58 87.8C492.324 88.568 491.94 89.2507 491.428 89.848C490.916 90.4453 490.319 90.9573 489.636 91.384C489.039 91.8107 488.356 92.024 487.588 92.024C486.564 92.024 485.497 91.512 484.388 90.488L449.316 64.12L414.5 90.488C413.561 91.3413 412.495 91.768 411.3 91.768C409.764 91.768 408.441 91.0853 407.332 89.72C406.308 88.3547 405.796 86.904 405.796 85.368C405.796 84.6853 405.967 84.0453 406.308 83.448C406.649 82.7653 407.119 82.168 407.716 81.656L439.844 56.824L407.716 32.376C406.009 31.0107 405.156 29.6027 405.156 28.152C405.156 26.4453 405.753 25.0373 406.948 23.928C408.143 22.7333 409.551 22.136 411.172 22.136C411.769 22.136 412.452 22.2213 413.22 22.392C413.988 22.5627 414.671 22.9467 415.268 23.544L449.316 49.656Z" fill="currentColor"/>
</svg>
